<svg xmlns="http://www.w3.org/2000/svg" version="1.1" xmlns:xlink="http://www.w3.org/1999/xlink" xmlns:svgjs="http://svgjs.dev/svgjs" width="128" height="128" viewBox="0 0 128 128"><g transform="matrix(0.4703196347031963,0,0,0.4703196347031963,33.20419070130463,11.647896449999983)"><svg viewBox="0 0 35 60" data-background-color="#f2f2f2" preserveAspectRatio="xMidYMid meet" height="219" width="128" xmlns="http://www.w3.org/2000/svg" xmlns:xlink="http://www.w3.org/1999/xlink"><g id="tight-bounds" transform="matrix(1,0,0,1,0.4042686798012767,0.49637100000001055)"><svg viewBox="0 0 34.19146264039744 59.00725799999999" height="59.00725799999999" width="34.19146264039744"><g><svg viewBox="0 0 34.19146264039744 59.00725799999999" height="59.00725799999999" width="34.19146264039744"><g><svg viewBox="0 0 34.19146264039744 59.00725799999999" height="59.00725799999999" width="34.19146264039744"><g><svg viewBox="0 0 34.19146264039744 59.00725799999999" height="59.00725799999999" width="34.19146264039744"><g id="textblocktransform"><svg viewBox="0 0 34.19146264039744 59.00725799999999" height="59.00725799999999" width="34.19146264039744" id="textblock"><g><svg viewBox="0 0 34.19146264039744 59.00725799999999" height="59.00725799999999" width="34.19146264039744"><g><svg viewBox="0 0 34.19146264039744 59.00725799999999" height="59.00725799999999" width="34.19146264039744"><g><svg xmlns="http://www.w3.org/2000/svg" xmlns:xlink="http://www.w3.org/1999/xlink" version="1.1" x="0" y="0" viewBox="26.000114097513723 1.614 55.99988590248628 96.64399999999999" enable-background="new 0 0 100 100" xml:space="preserve" height="59.00725799999999" width="34.19146264039744" class="icon-icon-0" data-fill-palette-color="accent" id="icon-0"><g fill="#3c4021" data-fill-palette-color="accent"><path d="M27.705 98.258C28.433 88.071 28.967 84.445 31.393 78.381 32.414 75.829 19.52 62.062 30.373 48.056 28.277 53.966 34.044 60.763 33.223 67.882 34.946 61.241 28.921 49.783 31.915 45.478 31.915 45.478 40.12 31.186 47.031 26.366 45.03 31.323 45.44 35.506 45.849 37.461 46.349 29.64 48.668 24.274 51.578 22.001 51.578 22.001 49.305 25.502 49.26 33.596 50.676 27.378 52.17 18.545 56.262 15.771 56.262 15.771 73.179 2.523 77.423 2.099 77.141 2.571 76.975 2.687 76.975 3.596 76.975 3.596 78.484 1.705 82 1.614 80.302 2.917 78.968 4.252 79.271 4.979S80.605 5.403 81.15 4.827C81.696 4.251 76.361 16.59 60.9 28.594 59.535 29.231 69.812 24.047 72.451 19.5 71.518 25.362 70.086 30.596 64.355 34.416 63.718 35.507 63.621 36.216 62.355 36.78 60.263 39.19 50.032 42.237 49.396 43.01 49.396 43.01 58.08 41.1 61.627 38.19 62.083 37.508 58.536 46.967 54.988 50.895 52.26 53.879 54.534 62.608 36.982 70.521 41.349 69.068 43.075 68.338 44.53 67.52S48.145 65.413 48.077 64.427C47.168 74.976 33.49 78.428 32.98 80.16 30.293 81.355 30.008 94.01 30.342 94.711 31.252 96.621 27.705 98.258 27.705 98.258" fill="#3c4021" data-fill-palette-color="accent"></path></g></svg></g></svg></g></svg></g></svg></g></svg></g></svg></g></svg></g><defs></defs></svg><rect width="34.19146264039744" height="59.00725799999999" fill="none" stroke="none" visibility="hidden"></rect></g></svg></g></svg>