<svg xmlns="http://www.w3.org/2000/svg" version="1.1" xmlns:xlink="http://www.w3.org/1999/xlink" xmlns:svgjs="http://svgjs.dev/svgjs" width="2000" height="363" viewBox="0 0 2000 363"><g transform="matrix(1,0,0,1,-1.2121212121213603,-2.4101044092757604)"><svg viewBox="0 0 396 72" data-background-color="#f2f2f2" preserveAspectRatio="xMidYMid meet" height="363" width="2000" xmlns="http://www.w3.org/2000/svg" xmlns:xlink="http://www.w3.org/1999/xlink"><g id="tight-bounds" transform="matrix(1,0,0,1,0.24000000000003752,0.47803723820345567)"><svg viewBox="0 0 395.5199999999999 71.04392552359306" height="71.04392552359306" width="395.5199999999999"><g><svg viewBox="0 0 395.5199999999999 71.04392552359306" height="71.04392552359306" width="395.5199999999999"><g><svg viewBox="0 0 395.5199999999999 71.04392552359306" height="71.04392552359306" width="395.5199999999999"><g><svg viewBox="0 0 457.12391397776327 82.1093176064158" height="71.04392552359306" width="395.5199999999999"><g transform="matrix(1,0,0,1,61.603913977763284,11.347959235040104)"><svg viewBox="0 0 395.52 59.41339913633559" height="59.41339913633559" width="395.52"><g id="textblocktransform"><svg viewBox="0 0 395.52 59.41339913633559" height="59.41339913633559" width="395.52" id="textblock"><g><svg viewBox="0 0 395.52 59.41339913633559" height="59.41339913633559" width="395.52"><g transform="matrix(1,0,0,1,0,0)"><svg width="395.52" viewBox="4 -42.29 316.57 47.559999999999995" height="59.41339913633559" data-palette-color="#3c4021"><path d="M43.12-40.23L43.12-40.23Q43.12-39.94 42.92-39.79L42.92-39.79Q41.36-38.23 39.11-37.28 36.87-36.33 34.67-35.94L34.67-35.94Q32.62-35.55 30.52-35.4 28.42-35.25 26.29-35.18 24.17-35.11 22.07-34.99 19.97-34.86 17.92-34.42L17.92-34.42Q17.68-30.47 16.7-26.66 15.72-22.85 14.45-19.14L14.45-19.14Q15.82-19.14 17.16-18.95 18.51-18.75 19.87-18.75L19.87-18.75Q21.09-18.75 22.29-18.87 23.49-18.99 24.66-19.29L24.66-19.29Q24.8-19.34 25.12-19.43 25.44-19.53 25.76-19.63 26.07-19.73 26.34-19.82 26.61-19.92 26.66-19.92L26.66-19.92Q26.9-19.92 27.2-19.58 27.49-19.24 27.49-19.04L27.49-19.04Q27.49-18.75 27.25-18.6L27.25-18.6Q25.39-17.43 23.05-16.89 20.7-16.36 18.55-16.36L18.55-16.36Q17.72-16.36 16.92-16.46 16.11-16.55 15.28-16.55L15.28-16.55Q14.84-16.55 14.38-16.5 13.92-16.46 13.48-16.36L13.48-16.36Q12.3-13.13 10.94-9.96 9.57-6.79 8.01-3.71L8.01-3.71Q7.37-2.54 6.71-1.2 6.05 0.15 5.37 1.27L5.37 1.27Q5.13 1.51 4.83 1.51L4.83 1.51Q4.54 1.51 4.27 1.32 4 1.12 4 0.78L4 0.78 4 0.63Q4.54-0.63 5.15-1.95 5.76-3.27 6.3-4.54L6.3-4.54Q8.54-9.96 10.55-15.53L10.55-15.53Q10.45-15.48 10.13-15.33 9.81-15.19 9.45-15.01 9.08-14.84 8.79-14.72 8.5-14.6 8.45-14.6L8.45-14.6Q8.15-14.6 7.86-14.92 7.57-15.23 7.57-15.53L7.57-15.53 7.62-15.67Q8.2-16.8 9.33-17.55 10.45-18.31 11.67-18.7L11.67-18.7Q12.94-22.51 13.84-26.37 14.75-30.22 16.06-33.98L16.06-33.98Q14.21-33.45 12.52-32.5 10.84-31.54 9.57-30.03L9.57-30.03Q9.18-29.64 8.94-29.22 8.69-28.81 8.35-28.42L8.35-28.42Q8.2-28.17 7.91-28.17L7.91-28.17Q7.62-28.17 7.35-28.37 7.08-28.56 7.08-28.91L7.08-28.91Q7.08-29.05 7.13-29.1L7.13-29.1Q8.45-31.74 10.52-33.37 12.6-35.01 15.09-35.91 17.58-36.82 20.34-37.18 23.1-37.55 25.73-37.7L25.73-37.7Q30.13-37.89 34.08-38.55 38.04-39.21 42.09-41.02L42.09-41.02Q42.19-41.06 42.33-41.06L42.33-41.06Q42.63-41.06 42.87-40.8 43.12-40.53 43.12-40.23ZM46.43-20.36L46.43-20.36Q46.43-19.14 45.85-17.94 45.26-16.75 44.36-15.67 43.45-14.6 42.38-13.72 41.31-12.84 40.38-12.21L40.38-12.21Q38.96-11.23 37.42-10.4 35.89-9.57 34.08-9.57L34.08-9.57Q33.69-9.57 33.23-9.67 32.76-9.77 32.76-10.3L32.76-10.3Q32.76-10.99 33.4-11.13L33.4-11.13Q33.54-11.18 33.74-11.18 33.93-11.18 34.13-11.23L34.13-11.23Q34.67-11.33 35.18-11.57 35.69-11.82 36.23-12.11L36.23-12.11Q37.06-12.65 38.33-13.62 39.6-14.6 40.82-15.77 42.04-16.94 42.89-18.16 43.75-19.38 43.75-20.46L43.75-20.46Q43.75-21.14 43.02-21.14L43.02-21.14Q42.72-21.14 42.43-21.04 42.14-20.95 41.84-20.85L41.84-20.85Q39.5-20.07 37.55-18.48 35.59-16.89 34.18-14.79 32.76-12.7 31.96-10.3 31.15-7.91 31.15-5.52L31.15-5.52Q31.15-4.74 31.27-3.74 31.39-2.73 31.76-1.86 32.13-0.98 32.76-0.37 33.4 0.24 34.42 0.24L34.42 0.24Q34.81 0.24 35.15 0.12 35.5 0 35.84-0.2L35.84-0.2Q37.16-0.93 38.28-2.17 39.4-3.42 40.28-4.69L40.28-4.69Q40.52-4.98 40.74-5.32 40.96-5.66 41.21-6.01L41.21-6.01Q41.35-6.25 41.7-6.25L41.7-6.25Q41.99-6.25 42.26-6.05 42.53-5.86 42.53-5.52L42.53-5.52Q42.53-5.42 42.43-5.22L42.43-5.22Q41.84-4.15 40.96-2.86 40.09-1.56 39.01-0.44 37.94 0.68 36.69 1.44 35.45 2.2 34.08 2.2L34.08 2.2Q32.57 2.2 31.56 1.34 30.56 0.49 29.98-0.76 29.39-2 29.15-3.44 28.9-4.88 28.9-6.05L28.9-6.05Q28.9-9.77 30.47-13.16 32.03-16.55 34.67-19.14L34.67-19.14Q35.45-19.92 36.47-20.73 37.5-21.53 38.64-22.19 39.79-22.85 40.99-23.27 42.19-23.68 43.31-23.68L43.31-23.68Q44.72-23.68 45.58-22.73 46.43-21.78 46.43-20.36ZM67.96-7.62L67.96-7.62Q66.69-5.03 65.33-3 63.96-0.98 61.76 0.93L61.76 0.93Q60.69 1.9 59.32 1.9L59.32 1.9Q58.59 1.9 57.93 1.49 57.27 1.07 57.03 0.34L57.03 0.34Q56.93 0.1 56.9-0.34 56.88-0.78 56.86-1.27 56.83-1.76 56.86-2.22 56.88-2.69 56.88-2.98L56.88-2.98Q55.17-0.93 52.85 0.51 50.53 1.95 47.75 1.95L47.75 1.95Q47.6 1.95 47.33 1.86 47.07 1.76 46.92 1.71L46.92 1.71Q45.8 1.17 45.23 0 44.67-1.17 44.67-2.34L44.67-2.34Q44.67-3.96 45.09-5.54 45.5-7.13 46.21-8.62 46.92-10.11 47.85-11.47 48.77-12.84 49.8-14.06L49.8-14.06Q52.44-17.33 55.85-19.75 59.27-22.17 63.28-23.63L63.28-23.63Q63.33-23.68 63.47-23.68L63.47-23.68Q63.81-23.68 63.98-23.44 64.16-23.19 64.16-22.9L64.16-22.9Q64.16-22.46 63.81-22.31L63.81-22.31Q62.98-21.88 62.18-21.51 61.37-21.14 60.59-20.7L60.59-20.7Q55.17-17.58 51.46-12.7L51.46-12.7Q50.73-11.72 49.95-10.5 49.16-9.28 48.53-7.98 47.9-6.69 47.48-5.32 47.07-3.96 47.07-2.69L47.07-2.69Q47.07-2.49 47.11-2.12 47.16-1.76 47.26-1.39 47.36-1.03 47.58-0.76 47.8-0.49 48.09-0.49L48.09-0.49Q49.51-0.49 50.85-1.22 52.19-1.95 53.36-3.08 54.54-4.2 55.46-5.47 56.39-6.74 56.98-7.86L56.98-7.86Q58.1-9.91 58.98-11.99 59.86-14.06 60.74-16.16L60.74-16.16Q61.08-17.04 61.54-18.21 62.01-19.38 62.45-20.21L62.45-20.21Q62.64-20.56 63.08-20.56L63.08-20.56Q63.42-20.56 63.67-20.36 63.91-20.17 63.91-19.82L63.91-19.82 63.86-19.73Q63.47-17.97 62.98-16.19 62.5-14.4 61.91-12.7L61.91-12.7Q61.66-12.01 61.32-11.18 60.98-10.35 60.79-9.77L60.79-9.77Q60.69-9.42 60.66-9.08 60.64-8.74 60.59-8.4L60.59-8.4Q60.44-7.62 60.27-6.86 60.1-6.1 59.91-5.32L59.91-5.32Q59.66-4.35 59.49-3.34 59.32-2.34 59.32-1.32L59.32-1.32Q59.32-1.07 59.32-0.88 59.32-0.68 59.37-0.49L59.37-0.49Q59.71-0.49 60.18-0.78 60.64-1.07 61.13-1.49 61.62-1.9 62.03-2.34 62.45-2.78 62.69-3.03L62.69-3.03Q64.16-4.59 65.47-6.49L65.47-6.49Q65.82-6.88 66.08-7.35 66.35-7.81 66.69-8.2L66.69-8.2Q66.84-8.45 67.13-8.45L67.13-8.45Q67.48-8.45 67.72-8.2 67.96-7.96 67.96-7.62ZM84.17-31.98L84.17-31.98Q84.17-31.88 84.15-31.84 84.12-31.79 84.12-31.74L84.12-31.74Q82.61-28.37 81-25.07 79.39-21.78 78.12-18.26L78.12-18.26Q78.65-18.26 79.14-18.29 79.63-18.31 80.17-18.31L80.17-18.31Q80.41-18.31 80.73-18.33 81.05-18.36 81.32-18.29 81.58-18.21 81.78-18.04 81.97-17.87 81.97-17.48L81.97-17.48Q81.97-16.99 81.58-16.85L81.58-16.85Q81.24-16.75 80.68-16.63 80.12-16.5 79.51-16.41 78.9-16.31 78.34-16.24 77.78-16.16 77.39-16.11L77.39-16.11Q76.95-14.84 76.56-13.31 76.16-11.77 75.87-10.13 75.58-8.5 75.38-6.91 75.19-5.32 75.19-4L75.19-4Q75.19-3.66 75.21-2.95 75.24-2.25 75.36-1.56 75.48-0.88 75.75-0.34 76.02 0.2 76.51 0.2L76.51 0.2Q77.19 0.2 78.07-0.49 78.95-1.17 79.8-2.08 80.66-2.98 81.41-3.88 82.17-4.79 82.66-5.27L82.66-5.27Q82.85-5.47 83.1-5.47L83.1-5.47Q83.39-5.47 83.66-5.22 83.93-4.98 83.93-4.69L83.93-4.69Q83.93-4.54 83.78-4.35L83.78-4.35Q83.24-3.56 82.39-2.42 81.54-1.27 80.53-0.22 79.53 0.83 78.43 1.56 77.34 2.29 76.31 2.29L76.31 2.29Q75.19 2.29 74.5 1.51 73.82 0.73 73.45-0.37 73.09-1.46 72.97-2.66 72.84-3.86 72.84-4.69L72.84-4.69Q72.84-5.86 73.01-7.32 73.19-8.79 73.43-10.3 73.67-11.82 74.02-13.26 74.36-14.7 74.65-15.87L74.65-15.87Q74.26-15.87 73.89-15.84 73.53-15.82 73.14-15.82L73.14-15.82Q72.11-15.82 71.04-15.87 69.96-15.92 68.94-16.09 67.91-16.26 66.94-16.67 65.96-17.09 65.18-17.82L65.18-17.82Q64.98-17.97 64.98-18.26L64.98-18.26Q64.98-18.36 65.28-18.77 65.57-19.19 65.67-19.19L65.67-19.19Q67.47-19.19 69.23-18.8 70.99-18.41 72.8-18.31L72.8-18.31Q73.38-18.26 73.99-18.26 74.6-18.26 75.24-18.26L75.24-18.26 75.38-18.26Q75.92-19.92 76.7-21.88 77.48-23.83 78.46-25.73 79.44-27.64 80.53-29.42 81.63-31.2 82.81-32.52L82.81-32.52Q83.1-32.71 83.29-32.71L83.29-32.71Q83.59-32.71 83.88-32.5 84.17-32.28 84.17-31.98ZM109.27-3.17L109.27-3.17Q109.27-2.78 109.02-2.69L109.02-2.69Q108.44-2.15 107.39-1.44 106.34-0.73 105.19-0.1 104.04 0.54 102.92 1 101.8 1.46 101.02 1.46L101.02 1.46Q100.43 1.46 99.94 1.2 99.45 0.93 99.09 0.49 98.72 0.05 98.5-0.49 98.28-1.03 98.28-1.56L98.28-1.56Q98.28-1.66 98.31-1.78 98.33-1.9 98.33-2L98.33-2Q98.48-3.08 98.62-4.1 98.77-5.13 99.06-6.15L99.06-6.15Q99.55-8.11 100.26-9.99 100.97-11.87 101.67-13.75 102.38-15.63 103.04-17.5 103.7-19.38 104.14-21.34L104.14-21.34Q104.24-21.63 104.26-21.92 104.29-22.22 104.34-22.51L104.34-22.51Q103.51-22.41 102.46-21.88 101.41-21.34 100.33-20.61 99.26-19.87 98.31-19.07 97.35-18.26 96.72-17.72L96.72-17.72Q95.94-17.04 94.91-16.11 93.89-15.19 92.91-14.16 91.93-13.13 91.1-12.08 90.27-11.04 89.93-10.06L89.93-10.06Q89.54-9.08 89.3-8.08 89.05-7.08 88.71-6.1L88.71-6.1Q88.08-4.05 87.37-2 86.66 0.05 85.83 2.1L85.83 2.1Q85.54 2.78 85.24 3.54 84.95 4.3 84.56 4.93L84.56 4.93Q84.37 5.27 83.97 5.27L83.97 5.27Q83.73 5.27 83.44 5.05 83.14 4.83 83.14 4.54L83.14 4.54Q83.14 4.49 83.22 4.2 83.29 3.91 83.36 3.54 83.44 3.17 83.51 2.86 83.58 2.54 83.58 2.44L83.58 2.44Q84.71-2.49 86.27-7.23 87.83-11.96 89.35-16.8L89.35-16.8Q90.66-21.09 92.03-25.32 93.4-29.54 94.81-33.79L94.81-33.79Q95.25-35.21 95.72-36.62 96.18-38.04 96.67-39.45L96.67-39.45Q96.91-40.04 97.08-40.67 97.26-41.31 97.5-41.89L97.5-41.89Q97.65-42.29 98.09-42.29L98.09-42.29Q98.33-42.29 98.62-42.07 98.92-41.85 98.92-41.55L98.92-41.55 98.87-41.5Q97.3-35.25 95.52-29.1 93.74-22.95 91.88-16.8L91.88-16.8Q92.91-17.87 94.47-19.31 96.03-20.75 97.79-22.02 99.55-23.29 101.38-24.19 103.21-25.1 104.78-25.1L104.78-25.1Q105.12-25.1 105.46-24.9 105.8-24.71 106.09-24.39 106.39-24.07 106.58-23.71 106.78-23.34 106.78-23L106.78-23Q106.78-22.46 106.73-21.9 106.68-21.34 106.53-20.8L106.53-20.8Q106.04-18.85 105.36-16.94 104.68-15.04 103.92-13.16 103.16-11.28 102.43-9.4 101.7-7.52 101.11-5.57L101.11-5.57Q100.87-4.74 100.6-3.69 100.33-2.64 100.33-1.76L100.33-1.76Q100.33-1.32 100.45-0.88 100.58-0.44 101.11-0.44L101.11-0.44Q101.99-0.44 103.21-0.98 104.43-1.51 105.56-2.17 106.68-2.83 107.51-3.39 108.34-3.96 108.53-3.96L108.53-3.96Q108.88-3.96 109.07-3.71 109.27-3.47 109.27-3.17ZM127.09-20.36L127.09-20.36Q127.09-19.14 126.5-17.94 125.92-16.75 125.01-15.67 124.11-14.6 123.03-13.72 121.96-12.84 121.03-12.21L121.03-12.21Q119.62-11.23 118.08-10.4 116.54-9.57 114.73-9.57L114.73-9.57Q114.34-9.57 113.88-9.67 113.42-9.77 113.42-10.3L113.42-10.3Q113.42-10.99 114.05-11.13L114.05-11.13Q114.2-11.18 114.39-11.18 114.59-11.18 114.78-11.23L114.78-11.23Q115.32-11.33 115.83-11.57 116.34-11.82 116.88-12.11L116.88-12.11Q117.71-12.65 118.98-13.62 120.25-14.6 121.47-15.77 122.69-16.94 123.55-18.16 124.4-19.38 124.4-20.46L124.4-20.46Q124.4-21.14 123.67-21.14L123.67-21.14Q123.38-21.14 123.08-21.04 122.79-20.95 122.5-20.85L122.5-20.85Q120.15-20.07 118.2-18.48 116.25-16.89 114.83-14.79 113.42-12.7 112.61-10.3 111.8-7.91 111.8-5.52L111.8-5.52Q111.8-4.74 111.93-3.74 112.05-2.73 112.41-1.86 112.78-0.98 113.42-0.37 114.05 0.24 115.08 0.24L115.08 0.24Q115.47 0.24 115.81 0.12 116.15 0 116.49-0.2L116.49-0.2Q117.81-0.93 118.93-2.17 120.06-3.42 120.93-4.69L120.93-4.69Q121.18-4.98 121.4-5.32 121.62-5.66 121.86-6.01L121.86-6.01Q122.01-6.25 122.35-6.25L122.35-6.25Q122.64-6.25 122.91-6.05 123.18-5.86 123.18-5.52L123.18-5.52Q123.18-5.42 123.08-5.22L123.08-5.22Q122.5-4.15 121.62-2.86 120.74-1.56 119.67-0.44 118.59 0.68 117.35 1.44 116.1 2.2 114.73 2.2L114.73 2.2Q113.22 2.2 112.22 1.34 111.22 0.49 110.63-0.76 110.05-2 109.8-3.44 109.56-4.88 109.56-6.05L109.56-6.05Q109.56-9.77 111.12-13.16 112.68-16.55 115.32-19.14L115.32-19.14Q116.1-19.92 117.13-20.73 118.15-21.53 119.3-22.19 120.45-22.85 121.64-23.27 122.84-23.68 123.96-23.68L123.96-23.68Q125.38-23.68 126.23-22.73 127.09-21.78 127.09-20.36ZM145.93-19.53L145.93-19.53Q145.93-19.14 145.88-18.8 145.83-18.46 145.74-18.07L145.74-18.07Q145.64-17.68 145.2-17.68L145.2-17.68Q145-17.68 144.64-17.85 144.27-18.02 144.27-18.21L144.27-18.21 144.32-18.65Q144.32-18.99 144.25-19.48 144.17-19.97 144-20.43 143.83-20.9 143.54-21.22 143.25-21.53 142.76-21.53L142.76-21.53Q141.59-21.53 140.27-20.83 138.95-20.12 138.02-19.43L138.02-19.43Q137.63-19.14 136.95-18.55 136.26-17.97 135.53-17.29 134.8-16.6 134.19-15.97 133.58-15.33 133.33-14.94L133.33-14.94Q133.19-14.75 132.97-14.23 132.75-13.72 132.53-13.13 132.31-12.55 132.09-12.01 131.87-11.47 131.72-11.18L131.72-11.18Q130.75-8.84 129.84-6.49 128.94-4.15 128.16-1.76L128.16-1.76Q127.77-0.63 127.45 0.56 127.13 1.76 126.74 2.88L126.74 2.88Q126.55 3.27 126.25 3.27L126.25 3.27Q126.06 3.27 125.69 3.05 125.33 2.83 125.33 2.64L125.33 2.64Q125.33 2.1 125.5 1.42 125.67 0.73 125.77 0.2L125.77 0.2Q126.4-2.98 127.33-6.05 128.26-9.13 129.48-12.11L129.48-12.11Q129.92-13.28 130.53-14.89 131.14-16.5 131.82-18.19 132.5-19.87 133.26-21.36 134.02-22.85 134.8-23.73L134.8-23.73Q134.99-23.93 135.24-23.93L135.24-23.93Q135.43-23.93 135.8-23.71 136.17-23.49 136.17-23.24L136.17-23.24Q136.17-23.1 136.07-22.73 135.97-22.36 135.87-21.95 135.78-21.53 135.65-21.17 135.53-20.8 135.48-20.65L135.48-20.65Q137.05-21.83 138.75-22.75 140.46-23.68 142.51-23.68L142.51-23.68Q143.39-23.68 144.03-23.32 144.66-22.95 145.1-22.36 145.54-21.78 145.74-21.04 145.93-20.31 145.93-19.53ZM186.8-14.94L186.8-14.94Q186.8-11.91 185.53-9.23 184.26-6.54 182.16-4.44L182.16-4.44Q183.13-2.98 184.14-1.66 185.14-0.34 186.26 0.98L186.26 0.98Q186.5 1.22 186.5 1.56L186.5 1.56Q186.5 1.86 186.31 2.08 186.11 2.29 185.82 2.29L185.82 2.29Q185.43 2.29 184.67 1.59 183.92 0.88 183.11-0.02 182.3-0.93 181.6-1.81 180.89-2.69 180.64-3.03L180.64-3.03Q178.45-1.32 175.83-0.29 173.22 0.73 170.44 0.73L170.44 0.73Q169.56 0.73 168.53 0.59 167.51 0.44 166.51 0.15 165.51-0.15 164.6-0.59 163.7-1.03 162.97-1.61L162.97-1.61Q162.14-2.25 161.53-3.2 160.92-4.15 160.5-5.25 160.09-6.35 159.87-7.47 159.65-8.59 159.65-9.62L159.65-9.62Q159.65-12.16 160.94-14.21 162.24-16.26 164.19-17.87 166.14-19.48 168.41-20.78 170.68-22.07 172.64-23.19L172.64-23.19Q172.54-24.02 172.39-24.83 172.25-25.63 172.25-26.46L172.25-26.46Q172.25-28.13 172.66-29.76 173.08-31.4 173.88-32.86 174.69-34.33 175.88-35.52 177.08-36.72 178.64-37.4L178.64-37.4Q179.08-37.6 179.55-37.72 180.01-37.84 180.5-37.84L180.5-37.84Q182.16-37.84 183.35-36.77 184.55-35.69 184.55-33.98L184.55-33.98Q184.55-32.81 184.18-31.64 183.82-30.47 183.21-29.37 182.6-28.27 181.84-27.29 181.08-26.32 180.3-25.54L180.3-25.54Q179.23-24.46 178.03-23.63 176.84-22.8 175.57-22.02L175.57-22.02Q176.35-17.82 177.71-13.79 179.08-9.77 181.23-6.05L181.23-6.05Q183.04-7.91 184.16-10.23 185.28-12.55 185.28-15.19L185.28-15.19Q185.28-15.87 185.19-16.5 185.09-17.14 184.94-17.82L184.94-17.82 184.94-18.02Q184.94-18.31 185.14-18.53 185.33-18.75 185.62-18.75L185.62-18.75Q186.21-18.75 186.36-18.16L186.36-18.16Q186.6-17.48 186.7-16.58 186.8-15.67 186.8-14.94ZM181.96-33.89L181.96-33.89Q181.96-34.72 181.52-34.96 181.08-35.21 180.35-35.21L180.35-35.21Q180.01-35.21 179.81-35.06L179.81-35.06Q177.42-33.69 176.18-31.54 174.93-29.39 174.93-26.61L174.93-26.61Q174.93-25.59 175.08-24.66L175.08-24.66Q176.01-25.2 176.88-25.83 177.76-26.46 178.5-27.25L178.5-27.25Q179.08-27.83 179.69-28.64 180.3-29.44 180.81-30.32 181.33-31.2 181.65-32.13 181.96-33.06 181.96-33.89ZM179.57-4.59L179.57-4.59Q177.13-8.25 175.54-12.3 173.95-16.36 173.08-20.65L173.08-20.65Q171.51-19.78 169.58-18.7 167.66-17.63 165.97-16.26 164.29-14.89 163.11-13.21 161.94-11.52 161.94-9.47L161.94-9.47Q161.94-8.69 162.09-7.81 162.24-6.93 162.55-6.08 162.87-5.22 163.33-4.47 163.8-3.71 164.38-3.22L164.38-3.22Q165.61-2.25 167.29-1.76 168.97-1.27 170.54-1.27L170.54-1.27Q173.03-1.27 175.35-2.17 177.67-3.08 179.57-4.59ZM244.41-40.23L244.41-40.23Q244.41-39.94 244.21-39.79L244.21-39.79Q242.65-38.23 240.4-37.28 238.16-36.33 235.96-35.94L235.96-35.94Q233.91-35.55 231.81-35.4 229.71-35.25 227.59-35.18 225.46-35.11 223.36-34.99 221.26-34.86 219.21-34.42L219.21-34.42Q218.97-30.47 217.99-26.66 217.02-22.85 215.75-19.14L215.75-19.14Q217.11-19.14 218.46-18.95 219.8-18.75 221.17-18.75L221.17-18.75Q222.39-18.75 223.58-18.87 224.78-18.99 225.95-19.29L225.95-19.29Q226.1-19.34 226.42-19.43 226.73-19.53 227.05-19.63 227.37-19.73 227.64-19.82 227.9-19.92 227.95-19.92L227.95-19.92Q228.2-19.92 228.49-19.58 228.78-19.24 228.78-19.04L228.78-19.04Q228.78-18.75 228.54-18.6L228.54-18.6Q226.68-17.43 224.34-16.89 222-16.36 219.85-16.36L219.85-16.36Q219.02-16.36 218.21-16.46 217.41-16.55 216.58-16.55L216.58-16.55Q216.14-16.55 215.67-16.5 215.21-16.46 214.77-16.36L214.77-16.36Q213.6-13.13 212.23-9.96 210.86-6.79 209.3-3.71L209.3-3.71Q208.67-2.54 208.01-1.2 207.35 0.15 206.66 1.27L206.66 1.27Q206.42 1.51 206.13 1.51L206.13 1.51Q205.83 1.51 205.57 1.32 205.3 1.12 205.3 0.78L205.3 0.78 205.3 0.63Q205.83-0.63 206.44-1.95 207.06-3.27 207.59-4.54L207.59-4.54Q209.84-9.96 211.84-15.53L211.84-15.53Q211.74-15.48 211.43-15.33 211.11-15.19 210.74-15.01 210.38-14.84 210.08-14.72 209.79-14.6 209.74-14.6L209.74-14.6Q209.45-14.6 209.15-14.92 208.86-15.23 208.86-15.53L208.86-15.53 208.91-15.67Q209.5-16.8 210.62-17.55 211.74-18.31 212.96-18.7L212.96-18.7Q214.23-22.51 215.14-26.37 216.04-30.22 217.36-33.98L217.36-33.98Q215.5-33.45 213.82-32.5 212.13-31.54 210.86-30.03L210.86-30.03Q210.47-29.64 210.23-29.22 209.98-28.81 209.64-28.42L209.64-28.42Q209.5-28.17 209.2-28.17L209.2-28.17Q208.91-28.17 208.64-28.37 208.37-28.56 208.37-28.91L208.37-28.91Q208.37-29.05 208.42-29.1L208.42-29.1Q209.74-31.74 211.82-33.37 213.89-35.01 216.38-35.91 218.87-36.82 221.63-37.18 224.39-37.55 227.03-37.7L227.03-37.7Q231.42-37.89 235.38-38.55 239.33-39.21 243.38-41.02L243.38-41.02Q243.48-41.06 243.63-41.06L243.63-41.06Q243.92-41.06 244.16-40.8 244.41-40.53 244.41-40.23ZM249.04-19.53L249.04-19.53Q249.04-19.14 249-18.8 248.95-18.46 248.85-18.07L248.85-18.07Q248.75-17.68 248.31-17.68L248.31-17.68Q248.12-17.68 247.75-17.85 247.38-18.02 247.38-18.21L247.38-18.21 247.43-18.65Q247.43-18.99 247.36-19.48 247.29-19.97 247.12-20.43 246.95-20.9 246.65-21.22 246.36-21.53 245.87-21.53L245.87-21.53Q244.7-21.53 243.38-20.83 242.06-20.12 241.13-19.43L241.13-19.43Q240.74-19.14 240.06-18.55 239.38-17.97 238.64-17.29 237.91-16.6 237.3-15.97 236.69-15.33 236.45-14.94L236.45-14.94Q236.3-14.75 236.08-14.23 235.86-13.72 235.64-13.13 235.42-12.55 235.2-12.01 234.98-11.47 234.84-11.18L234.84-11.18Q233.86-8.84 232.96-6.49 232.05-4.15 231.27-1.76L231.27-1.76Q230.88-0.63 230.56 0.56 230.25 1.76 229.86 2.88L229.86 2.88Q229.66 3.27 229.37 3.27L229.37 3.27Q229.17 3.27 228.81 3.05 228.44 2.83 228.44 2.64L228.44 2.64Q228.44 2.1 228.61 1.42 228.78 0.73 228.88 0.2L228.88 0.2Q229.51-2.98 230.44-6.05 231.37-9.13 232.59-12.11L232.59-12.11Q233.03-13.28 233.64-14.89 234.25-16.5 234.93-18.19 235.62-19.87 236.37-21.36 237.13-22.85 237.91-23.73L237.91-23.73Q238.11-23.93 238.35-23.93L238.35-23.93Q238.55-23.93 238.91-23.71 239.28-23.49 239.28-23.24L239.28-23.24Q239.28-23.1 239.18-22.73 239.08-22.36 238.99-21.95 238.89-21.53 238.77-21.17 238.64-20.8 238.6-20.65L238.6-20.65Q240.16-21.83 241.87-22.75 243.58-23.68 245.63-23.68L245.63-23.68Q246.51-23.68 247.14-23.32 247.78-22.95 248.21-22.36 248.65-21.78 248.85-21.04 249.04-20.31 249.04-19.53ZM269.06-7.62L269.06-7.62Q267.79-5.03 266.43-3 265.06-0.98 262.86 0.93L262.86 0.93Q261.79 1.9 260.42 1.9L260.42 1.9Q259.69 1.9 259.03 1.49 258.37 1.07 258.12 0.34L258.12 0.34Q258.03 0.1 258-0.34 257.98-0.78 257.95-1.27 257.93-1.76 257.95-2.22 257.98-2.69 257.98-2.98L257.98-2.98Q256.27-0.93 253.95 0.51 251.63 1.95 248.85 1.95L248.85 1.95Q248.7 1.95 248.43 1.86 248.16 1.76 248.02 1.71L248.02 1.71Q246.89 1.17 246.33 0 245.77-1.17 245.77-2.34L245.77-2.34Q245.77-3.96 246.19-5.54 246.6-7.13 247.31-8.62 248.02-10.11 248.94-11.47 249.87-12.84 250.9-14.06L250.9-14.06Q253.53-17.33 256.95-19.75 260.37-22.17 264.37-23.63L264.37-23.63Q264.42-23.68 264.57-23.68L264.57-23.68Q264.91-23.68 265.08-23.44 265.25-23.19 265.25-22.9L265.25-22.9Q265.25-22.46 264.91-22.31L264.91-22.31Q264.08-21.88 263.28-21.51 262.47-21.14 261.69-20.7L261.69-20.7Q256.27-17.58 252.56-12.7L252.56-12.7Q251.83-11.72 251.04-10.5 250.26-9.28 249.63-7.98 248.99-6.69 248.58-5.32 248.16-3.96 248.16-2.69L248.16-2.69Q248.16-2.49 248.21-2.12 248.26-1.76 248.36-1.39 248.46-1.03 248.68-0.76 248.9-0.49 249.19-0.49L249.19-0.49Q250.6-0.49 251.95-1.22 253.29-1.95 254.46-3.08 255.63-4.2 256.56-5.47 257.49-6.74 258.08-7.86L258.08-7.86Q259.2-9.91 260.08-11.99 260.96-14.06 261.84-16.16L261.84-16.16Q262.18-17.04 262.64-18.21 263.1-19.38 263.54-20.21L263.54-20.21Q263.74-20.56 264.18-20.56L264.18-20.56Q264.52-20.56 264.76-20.36 265.01-20.17 265.01-19.82L265.01-19.82 264.96-19.73Q264.57-17.97 264.08-16.19 263.59-14.4 263.01-12.7L263.01-12.7Q262.76-12.01 262.42-11.18 262.08-10.35 261.88-9.77L261.88-9.77Q261.79-9.42 261.76-9.08 261.74-8.74 261.69-8.4L261.69-8.4Q261.54-7.62 261.37-6.86 261.2-6.1 261.01-5.32L261.01-5.32Q260.76-4.35 260.59-3.34 260.42-2.34 260.42-1.32L260.42-1.32Q260.42-1.07 260.42-0.88 260.42-0.68 260.47-0.49L260.47-0.49Q260.81-0.49 261.27-0.78 261.74-1.07 262.23-1.49 262.71-1.9 263.13-2.34 263.54-2.78 263.79-3.03L263.79-3.03Q265.25-4.59 266.57-6.49L266.57-6.49Q266.91-6.88 267.18-7.35 267.45-7.81 267.79-8.2L267.79-8.2Q267.94-8.45 268.23-8.45L268.23-8.45Q268.57-8.45 268.82-8.2 269.06-7.96 269.06-7.62ZM303.29-3.08L303.29-3.08Q303.29-2.73 302.43-2.08 301.58-1.42 300.46-0.76 299.33-0.1 298.28 0.46 297.23 1.03 296.84 1.17L296.84 1.17Q295.91 1.51 295.08 1.51L295.08 1.51Q293.52 1.51 292.91 0.49 292.3-0.54 292.3-1.95L292.3-1.95Q292.3-3.47 292.84-5.52 293.38-7.57 294.13-9.74 294.89-11.91 295.7-13.99 296.5-16.06 297.04-17.58L297.04-17.58Q297.38-18.6 297.79-19.92 298.21-21.24 298.21-22.36L298.21-22.36Q297.53-22.17 296.62-21.75 295.72-21.34 295.13-20.95L295.13-20.95Q292.94-19.48 290.89-17.9 288.83-16.31 286.78-14.6L286.78-14.6Q286-11.52 285.03-8.5 284.05-5.47 282.78-2.54L282.78-2.54Q282.39-1.71 282.02-0.83 281.66 0.05 281.17 0.78L281.17 0.78Q280.97 1.12 280.63 1.12L280.63 1.12Q280.39 1.12 280.07 0.88 279.75 0.63 279.75 0.39L279.75 0.39Q279.75 0.34 279.87-0.22 280-0.78 280.05-0.83L280.05-0.83Q280.73-3.86 281.68-6.76 282.63-9.67 283.61-12.6L283.61-12.6Q284.39-15.23 285.07-17.87L285.07-17.87Q285.37-18.99 285.61-20.14 285.86-21.29 285.86-22.41L285.86-22.41Q285.86-22.61 285.83-22.75 285.81-22.9 285.81-23.05L285.81-23.05Q284.64-22.8 283.24-21.61 281.85-20.41 280.49-18.87 279.12-17.33 277.9-15.8 276.68-14.26 275.85-13.33L275.85-13.33Q275.75-13.23 275.7-13.23L275.7-13.23Q275.55-12.94 275.43-12.65 275.31-12.35 275.16-12.11L275.16-12.11Q274.04-9.91 273.04-7.76 272.04-5.62 271.11-3.37L271.11-3.37Q270.57-2.15 270.16-0.9 269.74 0.34 269.25 1.56L269.25 1.56Q269.11 1.95 268.72 1.95L268.72 1.95Q268.47 1.95 268.16 1.71 267.84 1.46 267.84 1.27L267.84 1.27Q267.84 1.22 267.91 0.95 267.99 0.68 268.06 0.34 268.13 0 268.2-0.29 268.28-0.59 268.28-0.68L268.28-0.68Q269.11-3.91 270.3-7.03 271.5-10.16 272.97-13.18L272.97-13.18Q273.65-14.6 274.28-16.04 274.92-17.48 275.65-18.9L275.65-18.9Q275.94-19.48 276.33-20.26 276.73-21.04 277.19-21.8 277.65-22.56 278.14-23.27 278.63-23.97 279.07-24.41L279.07-24.41Q279.26-24.61 279.51-24.61L279.51-24.61Q279.7-24.61 280.05-24.34 280.39-24.07 280.39-23.83L280.39-23.83Q280.39-23.68 280.22-23.19 280.05-22.71 279.85-22.12 279.66-21.53 279.44-21.02 279.22-20.51 279.17-20.31L279.17-20.31Q279.7-20.95 280.49-21.83 281.27-22.71 282.17-23.51 283.07-24.32 284.05-24.85 285.03-25.39 285.95-25.39L285.95-25.39Q286.69-25.39 287.15-25.1 287.61-24.8 287.83-24.34 288.05-23.88 288.13-23.29 288.2-22.71 288.2-22.12L288.2-22.12Q288.2-21.14 288.05-20.17 287.91-19.19 287.66-18.21L287.66-18.21Q288.59-19.14 289.91-20.34 291.23-21.53 292.74-22.58 294.25-23.63 295.79-24.34 297.33-25.05 298.65-25.05L298.65-25.05Q299.43-25.05 300.09-24.41 300.75-23.78 300.75-23L300.75-23Q300.75-22.07 300.65-21.19 300.55-20.31 300.26-19.43L300.26-19.43Q299.67-17.43 298.89-15.45 298.11-13.48 297.33-11.52 296.55-9.57 295.84-7.62 295.13-5.66 294.65-3.61L294.65-3.61Q294.55-3.13 294.45-2.64 294.35-2.15 294.35-1.66L294.35-1.66Q294.35-1.12 294.45-0.76 294.55-0.39 295.18-0.39L295.18-0.39Q296.01-0.39 297.18-0.93 298.36-1.46 299.5-2.12 300.65-2.78 301.51-3.32 302.36-3.86 302.56-3.86L302.56-3.86Q302.85-3.86 303.07-3.61 303.29-3.37 303.29-3.08ZM320.57-20.36L320.57-20.36Q320.57-19.14 319.98-17.94 319.4-16.75 318.5-15.67 317.59-14.6 316.52-13.72 315.44-12.84 314.52-12.21L314.52-12.21Q313.1-11.23 311.56-10.4 310.02-9.57 308.22-9.57L308.22-9.57Q307.83-9.57 307.36-9.67 306.9-9.77 306.9-10.3L306.9-10.3Q306.9-10.99 307.53-11.13L307.53-11.13Q307.68-11.18 307.88-11.18 308.07-11.18 308.27-11.23L308.27-11.23Q308.8-11.33 309.32-11.57 309.83-11.82 310.37-12.11L310.37-12.11Q311.2-12.65 312.47-13.62 313.73-14.6 314.96-15.77 316.18-16.94 317.03-18.16 317.88-19.38 317.88-20.46L317.88-20.46Q317.88-21.14 317.15-21.14L317.15-21.14Q316.86-21.14 316.57-21.04 316.27-20.95 315.98-20.85L315.98-20.85Q313.64-20.07 311.68-18.48 309.73-16.89 308.31-14.79 306.9-12.7 306.09-10.3 305.29-7.91 305.29-5.52L305.29-5.52Q305.29-4.74 305.41-3.74 305.53-2.73 305.9-1.86 306.26-0.98 306.9-0.37 307.53 0.24 308.56 0.24L308.56 0.24Q308.95 0.24 309.29 0.12 309.63 0 309.97-0.2L309.97-0.2Q311.29-0.93 312.42-2.17 313.54-3.42 314.42-4.69L314.42-4.69Q314.66-4.98 314.88-5.32 315.1-5.66 315.35-6.01L315.35-6.01Q315.49-6.25 315.83-6.25L315.83-6.25Q316.13-6.25 316.4-6.05 316.66-5.86 316.66-5.52L316.66-5.52Q316.66-5.42 316.57-5.22L316.57-5.22Q315.98-4.15 315.1-2.86 314.22-1.56 313.15-0.44 312.07 0.68 310.83 1.44 309.58 2.2 308.22 2.2L308.22 2.2Q306.7 2.2 305.7 1.34 304.7 0.49 304.12-0.76 303.53-2 303.29-3.44 303.04-4.88 303.04-6.05L303.04-6.05Q303.04-9.77 304.6-13.16 306.17-16.55 308.8-19.14L308.8-19.14Q309.58-19.92 310.61-20.73 311.63-21.53 312.78-22.19 313.93-22.85 315.13-23.27 316.32-23.68 317.45-23.68L317.45-23.68Q318.86-23.68 319.72-22.73 320.57-21.78 320.57-20.36Z" opacity="1" transform="matrix(1,0,0,1,0,0)" fill="#3c4021" class="wordmark-text-0" data-fill-palette-color="primary" id="text-0"></path></svg></g></svg></g></svg></g></svg></g><g><svg viewBox="0 0 47.577836363253724 82.1093176064158" height="82.1093176064158" width="47.577836363253724"><g><svg xmlns="http://www.w3.org/2000/svg" xmlns:xlink="http://www.w3.org/1999/xlink" version="1.1" x="0" y="0" viewBox="26.000114097513723 1.614 55.99988590248628 96.64399999999999" enable-background="new 0 0 100 100" xml:space="preserve" height="82.1093176064158" width="47.577836363253724" class="icon-icon-0" data-fill-palette-color="accent" id="icon-0"><g fill="#3c4021" data-fill-palette-color="accent"><path d="M27.705 98.258C28.433 88.071 28.967 84.445 31.393 78.381 32.414 75.829 19.52 62.062 30.373 48.056 28.277 53.966 34.044 60.763 33.223 67.882 34.946 61.241 28.921 49.783 31.915 45.478 31.915 45.478 40.12 31.186 47.031 26.366 45.03 31.323 45.44 35.506 45.849 37.461 46.349 29.64 48.668 24.274 51.578 22.001 51.578 22.001 49.305 25.502 49.26 33.596 50.676 27.378 52.17 18.545 56.262 15.771 56.262 15.771 73.179 2.523 77.423 2.099 77.141 2.571 76.975 2.687 76.975 3.596 76.975 3.596 78.484 1.705 82 1.614 80.302 2.917 78.968 4.252 79.271 4.979S80.605 5.403 81.15 4.827C81.696 4.251 76.361 16.59 60.9 28.594 59.535 29.231 69.812 24.047 72.451 19.5 71.518 25.362 70.086 30.596 64.355 34.416 63.718 35.507 63.621 36.216 62.355 36.78 60.263 39.19 50.032 42.237 49.396 43.01 49.396 43.01 58.08 41.1 61.627 38.19 62.083 37.508 58.536 46.967 54.988 50.895 52.26 53.879 54.534 62.608 36.982 70.521 41.349 69.068 43.075 68.338 44.53 67.52S48.145 65.413 48.077 64.427C47.168 74.976 33.49 78.428 32.98 80.16 30.293 81.355 30.008 94.01 30.342 94.711 31.252 96.621 27.705 98.258 27.705 98.258" fill="#3c4021" data-fill-palette-color="accent"></path></g></svg></g></svg></g></svg></g></svg></g></svg></g><defs></defs></svg><rect width="395.5199999999999" height="71.04392552359306" fill="none" stroke="none" visibility="hidden"></rect></g></svg></g></svg>